<svg width="238" height="38" viewBox="0 0 238 38" fill="none" xmlns="http://www.w3.org/2000/svg">
<path d="M138.255 19.5454L121.898 2.19885C121.78 2.07362 121.641 1.97426 121.487 1.90647C121.333 1.83868 121.167 1.80379 121.001 1.80379C120.834 1.80379 120.669 1.83868 120.515 1.90647C120.361 1.97426 120.221 2.07362 120.103 2.19885L103.747 19.5454C103.27 20.0511 103 20.7381 103 21.4545C103 22.9422 104.14 24.1517 105.541 24.1517H107.265V36.5295C107.265 37.2754 107.833 37.8781 108.536 37.8781H118.459V28.4378H122.907V37.8781H133.466C134.169 37.8781 134.737 37.2754 134.737 36.5295V24.1517H136.46C137.135 24.1517 137.782 23.8694 138.259 23.3594C139.248 22.3058 139.248 20.599 138.255 19.5454Z" fill="#0E1449"/>
<path d="M221 1.80379C211.626 1.80379 204 9.89526 204 19.8409C204 29.7866 211.626 37.8781 221 37.8781C230.374 37.8781 238 29.7866 238 19.8409C238 9.89526 230.374 1.80379 221 1.80379ZM222.7 30.6632H219.3V27.0558H222.7V30.6632ZM224.359 21.8521C224.026 22.1371 223.705 22.4094 223.45 22.68C222.756 23.4141 222.702 24.0815 222.7 24.1103V24.3502H219.3V24.049C219.3 23.8362 219.349 21.926 221.044 20.1277C221.376 19.776 221.787 19.4189 222.219 19.0473C223.467 17.9741 224.286 17.1913 224.286 16.1127C224.266 15.2015 223.911 14.3347 223.297 13.6977C222.682 13.0608 221.857 12.7043 220.998 12.7045C220.139 12.7047 219.314 13.0617 218.7 13.699C218.086 14.3363 217.732 15.2033 217.712 16.1145H214.312C214.312 12.2022 217.313 9.01865 221 9.01865C224.687 9.01865 227.688 12.2022 227.688 16.1145C227.688 18.995 225.684 20.7139 224.359 21.8521Z" fill="#0E1449"/>
<path d="M16.625 27.3125H26.125V29.6875H16.625V27.3125ZM11.875 27.3125H14.25V29.6875H11.875V27.3125ZM16.625 21.375H26.125V23.75H16.625V21.375ZM11.875 21.375H14.25V23.75H11.875V21.375ZM16.625 15.4375H26.125V17.8125H16.625V15.4375ZM11.875 15.4375H14.25V17.8125H11.875V15.4375Z" fill="#0E1449"/>
<path d="M29.6875 5.9375H26.125V4.75C26.125 4.12011 25.8748 3.51602 25.4294 3.07062C24.984 2.62522 24.3799 2.375 23.75 2.375H14.25C13.6201 2.375 13.016 2.62522 12.5706 3.07062C12.1252 3.51602 11.875 4.12011 11.875 4.75V5.9375H8.3125C7.68261 5.9375 7.07852 6.18772 6.63312 6.63312C6.18772 7.07852 5.9375 7.68261 5.9375 8.3125V33.25C5.9375 33.8799 6.18772 34.484 6.63312 34.9294C7.07852 35.3748 7.68261 35.625 8.3125 35.625H29.6875C30.3174 35.625 30.9215 35.3748 31.3669 34.9294C31.8123 34.484 32.0625 33.8799 32.0625 33.25V8.3125C32.0625 7.68261 31.8123 7.07852 31.3669 6.63312C30.9215 6.18772 30.3174 5.9375 29.6875 5.9375ZM14.25 4.75H23.75V9.5H14.25V4.75ZM29.6875 33.25H8.3125V8.3125H11.875V11.875H26.125V8.3125H29.6875V33.25Z" fill="#0E1449"/>
</svg>
