<svg width="293" height="99" viewBox="0 0 293 99" fill="none" xmlns="http://www.w3.org/2000/svg">
<line y1="-1" x2="97.9995" y2="-1" transform="matrix(0 -1 -1 0 0.913574 99)" stroke="#424770" stroke-width="2"/>
<line y1="-1" x2="97.9995" y2="-1" transform="matrix(0 -1 -1 0 72.4744 99)" stroke="#424770" stroke-width="2"/>
<line y1="-1" x2="97.9995" y2="-1" transform="matrix(0 -1 -1 0 251.376 98.9702)" stroke="#424770" stroke-width="2"/>
<line y1="-1" x2="97.9995" y2="-1" transform="matrix(0 -1 -1 0 287.156 98.939)" stroke="#424770" stroke-width="2"/>
<line y1="-1" x2="97.9995" y2="-1" transform="matrix(0 -1 -1 0 215.595 98.9512)" stroke="#424770" stroke-width="2"/>
<line y1="-1" x2="97.9995" y2="-1" transform="matrix(0 -1 -1 0 179.815 98.9971)" stroke="#424770" stroke-width="2"/>
<line y1="-1" x2="97.9995" y2="-1" transform="matrix(0 -1 -1 0 144.035 98.9954)" stroke="#424770" stroke-width="2"/>
<line y1="-1" x2="97.9995" y2="-1" transform="matrix(0 -1 -1 0 108.255 98.9819)" stroke="#424770" stroke-width="2"/>
<line y1="-1" x2="97.9995" y2="-1" transform="matrix(0 -1 -1 0 36.6938 98.9939)" stroke="#424770" stroke-width="2"/>
</svg>
