<svg width="223" height="99" viewBox="0 0 223 99" fill="none" xmlns="http://www.w3.org/2000/svg">
<line y1="-1" x2="97.9995" y2="-1" transform="matrix(0 -1 -1 0 46.853 98.9702)" stroke="#424770" stroke-width="2"/>
<line y1="-1" x2="97.9995" y2="-1" transform="matrix(0 -1 -1 0 81.6965 98.939)" stroke="#424770" stroke-width="2"/>
<line y1="-1" x2="97.9995" y2="-1" transform="matrix(0 -1 -1 0 116.54 98.9143)" stroke="#424770" stroke-width="2"/>
<line y1="-1" x2="97.9995" y2="-1" transform="matrix(0 -1 -1 0 151.384 98.9971)" stroke="#424770" stroke-width="2"/>
<line y1="-1" x2="97.9995" y2="-1" transform="matrix(0 -1 -1 0 186.228 98.0105)" stroke="#424770" stroke-width="2"/>
<line y1="-1" x2="97.9995" y2="-1" transform="matrix(0 -1 -1 0 220.198 97.9995)" stroke="#424770" stroke-width="2"/>
<line y1="-1" x2="97.9995" y2="-1" transform="matrix(0 -1 -1 0 12.0093 98.9512)" stroke="#424770" stroke-width="2"/>
</svg>
