<svg width="238" height="38" viewBox="0 0 238 38" fill="none" xmlns="http://www.w3.org/2000/svg">
<path d="M138.255 18.7214L121.898 2.37235C121.78 2.25432 121.641 2.16067 121.487 2.09678C121.333 2.03289 121.167 2 121.001 2C120.834 2 120.669 2.03289 120.515 2.09678C120.361 2.16067 120.221 2.25432 120.103 2.37235L103.747 18.7214C103.27 19.1981 103 19.8455 103 20.5208C103 21.9229 104.14 23.0629 105.541 23.0629H107.265V34.7289C107.265 35.432 107.833 36 108.536 36H118.459V27.1025H122.907V36H133.466C134.169 36 134.737 35.432 134.737 34.7289V23.0629H136.46C137.135 23.0629 137.782 22.7968 138.259 22.3162C139.248 21.3232 139.248 19.7145 138.255 18.7214V18.7214Z" fill="#0E1449"/>
<path d="M221 2C211.626 2 204 9.6262 204 19C204 28.3738 211.626 36 221 36C230.374 36 238 28.3738 238 19C238 9.6262 230.374 2 221 2ZM222.7 29.2H219.3V25.8H222.7V29.2ZM224.359 20.8955C224.026 21.1641 223.705 21.4208 223.45 21.6758C222.756 22.3677 222.702 22.9967 222.7 23.0239V23.25H219.3V22.9661C219.3 22.7655 219.349 20.9652 221.044 19.2703C221.376 18.9388 221.787 18.6022 222.219 18.252C223.467 17.2405 224.286 16.5027 224.286 15.4861C224.266 14.6273 223.911 13.8103 223.297 13.21C222.682 12.6097 221.857 12.2737 220.998 12.2739C220.139 12.2741 219.314 12.6105 218.7 13.2112C218.086 13.8118 217.732 14.629 217.712 15.4878H214.312C214.312 11.8005 217.313 8.8 221 8.8C224.687 8.8 227.688 11.8005 227.688 15.4878C227.688 18.2027 225.684 19.8228 224.359 20.8955V20.8955Z" fill="#0E1449"/>
<path d="M16.625 27.3125H26.125V29.6875H16.625V27.3125ZM11.875 27.3125H14.25V29.6875H11.875V27.3125ZM16.625 21.375H26.125V23.75H16.625V21.375ZM11.875 21.375H14.25V23.75H11.875V21.375ZM16.625 15.4375H26.125V17.8125H16.625V15.4375ZM11.875 15.4375H14.25V17.8125H11.875V15.4375Z" fill="#0E1449"/>
<path d="M29.6875 5.9375H26.125V4.75C26.125 4.12011 25.8748 3.51602 25.4294 3.07062C24.984 2.62522 24.3799 2.375 23.75 2.375H14.25C13.6201 2.375 13.016 2.62522 12.5706 3.07062C12.1252 3.51602 11.875 4.12011 11.875 4.75V5.9375H8.3125C7.68261 5.9375 7.07852 6.18772 6.63312 6.63312C6.18772 7.07852 5.9375 7.68261 5.9375 8.3125V33.25C5.9375 33.8799 6.18772 34.484 6.63312 34.9294C7.07852 35.3748 7.68261 35.625 8.3125 35.625H29.6875C30.3174 35.625 30.9215 35.3748 31.3669 34.9294C31.8123 34.484 32.0625 33.8799 32.0625 33.25V8.3125C32.0625 7.68261 31.8123 7.07852 31.3669 6.63312C30.9215 6.18772 30.3174 5.9375 29.6875 5.9375V5.9375ZM14.25 4.75H23.75V9.5H14.25V4.75ZM29.6875 33.25H8.3125V8.3125H11.875V11.875H26.125V8.3125H29.6875V33.25Z" fill="#0E1449"/>
</svg>
