<svg width="238" height="38" viewBox="0 0 238 38" fill="none" xmlns="http://www.w3.org/2000/svg">
<path d="M138.255 19.5453L121.898 2.19878C121.78 2.07354 121.641 1.97419 121.487 1.9064C121.333 1.8386 121.167 1.80371 121.001 1.80371C120.834 1.80371 120.669 1.8386 120.515 1.9064C120.361 1.97419 120.221 2.07354 120.103 2.19878L103.747 19.5453C103.27 20.051 103 20.738 103 21.4544C103 22.9421 104.14 24.1517 105.541 24.1517H107.265V36.5294C107.265 37.2754 107.833 37.878 108.536 37.878H118.459V28.4377H122.907V37.878H133.466C134.169 37.878 134.737 37.2754 134.737 36.5294V24.1517H136.46C137.135 24.1517 137.782 23.8693 138.259 23.3594C139.248 22.3058 139.248 20.5989 138.255 19.5453V19.5453Z" fill="#0E1449"/>
<path d="M221 1.80371C211.626 1.80371 204 9.89518 204 19.8409C204 29.7866 211.626 37.878 221 37.878C230.374 37.878 238 29.7866 238 19.8409C238 9.89518 230.374 1.80371 221 1.80371ZM222.7 30.6632H219.3V27.0557H222.7V30.6632ZM224.359 21.852C224.026 22.137 223.705 22.4094 223.45 22.6799C222.756 23.414 222.702 24.0814 222.7 24.1103V24.3502H219.3V24.0489C219.3 23.8361 219.349 21.926 221.044 20.1277C221.376 19.7759 221.787 19.4188 222.219 19.0472C223.467 17.974 224.286 17.1912 224.286 16.1126C224.266 15.2014 223.911 14.3346 223.297 13.6976C222.682 13.0607 221.857 12.7042 220.998 12.7044C220.139 12.7047 219.314 13.0616 218.7 13.6989C218.086 14.3362 217.732 15.2032 217.712 16.1144H214.312C214.312 12.2021 217.313 9.01857 221 9.01857C224.687 9.01857 227.688 12.2021 227.688 16.1144C227.688 18.9949 225.684 20.7139 224.359 21.852V21.852Z" fill="#0E1449"/>
<path d="M16.625 27.3125H26.125V29.6875H16.625V27.3125ZM11.875 27.3125H14.25V29.6875H11.875V27.3125ZM16.625 21.375H26.125V23.75H16.625V21.375ZM11.875 21.375H14.25V23.75H11.875V21.375ZM16.625 15.4375H26.125V17.8125H16.625V15.4375ZM11.875 15.4375H14.25V17.8125H11.875V15.4375Z" fill="#0E1449"/>
<path d="M29.6875 5.9375H26.125V4.75C26.125 4.12011 25.8748 3.51602 25.4294 3.07062C24.984 2.62522 24.3799 2.375 23.75 2.375H14.25C13.6201 2.375 13.016 2.62522 12.5706 3.07062C12.1252 3.51602 11.875 4.12011 11.875 4.75V5.9375H8.3125C7.68261 5.9375 7.07852 6.18772 6.63312 6.63312C6.18772 7.07852 5.9375 7.68261 5.9375 8.3125V33.25C5.9375 33.8799 6.18772 34.484 6.63312 34.9294C7.07852 35.3748 7.68261 35.625 8.3125 35.625H29.6875C30.3174 35.625 30.9215 35.3748 31.3669 34.9294C31.8123 34.484 32.0625 33.8799 32.0625 33.25V8.3125C32.0625 7.68261 31.8123 7.07852 31.3669 6.63312C30.9215 6.18772 30.3174 5.9375 29.6875 5.9375V5.9375ZM14.25 4.75H23.75V9.5H14.25V4.75ZM29.6875 33.25H8.3125V8.3125H11.875V11.875H26.125V8.3125H29.6875V33.25Z" fill="#0E1449"/>
</svg>
